<svg width="168" height="73" viewBox="0 0 168 73" fill="none" xmlns="http://www.w3.org/2000/svg">
<path d="M57.6771 49.6049H51.332C52.1531 48.8422 52.3784 46.0987 52.6763 41.1444L52.749 40.0019L53.0469 33.5237C53.0469 32.2283 52.8972 31.39 52.5237 31.0843H59.6158C61.3307 31.0843 64.6922 31.1585 64.6922 34.7433C64.6922 37.1827 62.5122 38.6308 60.511 39.165C63.3479 39.3935 65.4522 40.8417 65.4522 43.8137C65.5249 47.0142 62.5413 49.6064 57.6887 49.6064M57.4649 40.6147H56.1962L55.9724 43.3597L55.8227 46.7902C55.8227 46.943 56.3459 47.3243 57.5376 47.3243C60.0765 47.3243 61.7187 46.029 61.7187 43.8938C61.7914 41.5316 59.7771 40.6295 57.4635 40.6295M57.9867 33.3145C57.6132 33.3145 57.1655 33.3145 56.7179 33.3886C56.4941 34.684 56.42 35.9037 56.3444 37.3503L56.2718 38.4187H56.7194C59.033 38.4187 61.1229 37.5803 61.1229 35.4466C61.1955 34.227 60.1521 33.313 57.9881 33.313M80.3688 49.7755C78.7993 49.7755 78.6539 49.7013 77.4579 45.3539L77.0103 43.7514C76.2633 44.1327 74.9204 44.2855 72.8291 44.2855H70.6492L70.2757 45.1239C69.9022 45.9622 69.007 47.716 69.007 48.7829C69.0007 49.0643 69.0256 49.3455 69.0811 49.6212H64.7503C65.9449 48.4015 67.5871 45.4295 69.7525 40.7185L71.0212 37.9735L73.4105 32.2565C73.4105 31.8752 73.3378 31.571 73.1866 31.1882H77.1425L79.0841 38.5032L79.8311 41.3996C81.1754 46.3554 82.0692 48.7146 83.1155 49.6316L80.3543 49.7844M74.6806 35.4555L71.6941 41.9337H76.4725L74.6806 35.4555ZM97.5264 50.3943C96.1821 50.3943 95.8842 50.1658 95.4366 49.5559L90.2861 42.3893C89.9126 41.7957 89.5391 41.3981 88.9418 41.3981H88.8691L88.7965 42.8463L88.5727 47.4193C88.5727 48.6389 88.7224 49.4016 89.0958 49.7043H84.1547C84.9016 49.1108 85.1255 46.9593 85.5731 41.2438L85.6457 40.1013L85.9437 33.6231C85.9437 32.3277 85.794 31.4894 85.4205 31.1837H92.0649C94.303 31.1837 97.2154 31.5651 97.2154 35.1454C97.2154 38.1175 95.2738 39.7185 92.8846 40.4811C93.2015 40.8206 93.5003 41.1773 93.7798 41.5494L97.4378 46.5053C99.7514 49.6301 99.9011 49.7696 100.722 50.1643C99.6626 50.3133 98.5945 50.3897 97.525 50.3928M90.9561 33.3961C90.5085 33.3961 89.9853 33.3961 89.5377 33.4703C89.388 34.2329 89.3138 35.6039 89.1642 37.8148L89.0915 39.1101C89.3153 39.1843 89.6728 39.1843 89.9126 39.1843C92.1507 39.1843 93.7202 37.7361 93.7202 35.6781C93.6476 34.2299 92.6739 33.3931 90.959 33.3931M107.172 49.9862C102.469 49.9862 99.7819 46.0245 99.7819 41.677C99.7819 35.5935 103.066 30.7772 109.263 30.7772C111.205 30.7772 112.1 31.1585 113.742 31.1585L113.295 35.8844C112.399 34.2077 110.905 33.1394 108.964 33.1394C105.084 33.1394 103.514 37.4082 103.514 41.0657C103.514 45.0274 105.752 47.2383 108.59 47.2383C110.16 47.2383 111.577 46.8569 113.89 45.1803C112.92 48.0766 110.756 49.9818 107.172 49.9818M139.123 49.7533C137.553 49.7533 137.48 49.6791 136.212 45.3316L135.764 43.7291C135.017 44.1104 133.674 44.2633 131.583 44.2633H129.345L128.971 45.1016C128.39 46.3213 127.703 47.7694 127.703 48.7606C127.703 48.9891 127.775 49.2948 127.775 49.599H114.935C115.682 48.7606 115.906 46.0171 116.28 41.1384L116.352 39.9959L116.65 33.5177C116.65 32.2981 116.501 31.4597 116.203 31.0784H121.205C120.458 31.6126 120.234 34.5846 119.936 39.5389L119.864 40.6814L119.49 46.1685C119.49 47.0068 119.788 47.2368 120.685 47.2368C123.745 47.2368 124.417 47.1626 125.835 46.2456C126.73 44.6431 127.627 42.6638 128.596 40.6072L129.865 37.8622L132.254 32.1452C132.254 31.7639 132.182 31.4597 132.03 31.0769H135.972L137.913 38.392L138.66 41.2883C140.005 46.2441 140.84 48.6033 142.02 49.5203C141.055 49.6502 140.083 49.7264 139.109 49.7488M133.436 35.4199L130.525 41.8981H135.228L133.436 35.4199ZM150.457 39.6116L149.188 42.051C148.89 43.4235 148.815 45.2515 148.815 47.2338C148.815 48.0721 148.964 49.2161 149.338 49.596H144.397C145.292 48.7576 145.591 43.6505 145.591 41.9738C144.92 39.6888 144.022 37.4008 142.68 34.6588C141.785 32.9821 140.814 31.3944 140.141 31.0769L143.339 30.9241C144.533 30.9241 144.908 31.0769 145.652 32.7536L148.191 39.0033L151.388 33.7447C151.612 33.2877 151.912 32.6764 151.912 32.1423C151.912 31.7609 151.839 31.2283 151.688 31.0739H156.542C155.495 31.3024 151.316 38.0863 150.42 39.6101M166.843 35.4185C166.096 34.046 164.453 32.9791 162.662 32.9791C161.092 32.9791 159.751 33.5726 159.751 35.2641C159.751 36.7123 161.465 37.6263 163.259 38.846C165.2 40.0657 167.215 41.591 167.215 44.2573C167.215 47.6878 163.93 49.8957 160.05 49.8957C158.48 49.8957 156.853 49.5915 154.974 48.9045L155.272 44.3315C156.167 46.161 157.81 47.5958 160.274 47.5958C162.14 47.5958 163.634 46.6818 163.634 45.0037C163.634 43.6312 162.515 42.7187 161.095 41.8788C158.108 40.0493 156.241 38.6145 156.241 35.9333C156.241 31.9716 159.438 30.6748 162.885 30.6748C164.827 30.6748 166.083 31.0561 167.289 31.0561L166.843 35.4185Z" fill="#00AEEF"/>
<path d="M44.1494 27.7325C43.7512 26.7829 43.0885 25.6997 41.8939 24.8881C41.3634 24.4815 40.6993 24.075 40.0366 23.8049C39.5061 23.6565 38.9757 23.5334 38.3115 23.5334H38.1662C37.3698 23.5334 35.9107 23.6818 35.1143 24.8881C34.7161 25.2946 34.5838 26.1077 34.7161 26.7843C34.8614 27.3259 35.2465 27.8675 35.777 28.004C35.8886 28.0981 36.0306 28.1462 36.1752 28.139C36.1752 28.2874 36.0298 28.5456 36.0298 28.5456C35.6316 28.9522 34.9689 29.6288 32.9779 29.6288H32.8326C31.7717 29.4804 30.9753 29.2222 29.7807 28.0025C29.1165 27.1894 28.7198 25.6997 28.7198 23.3969C28.7198 22.1772 28.5745 21.2306 28.3216 20.4293C28.1763 19.8877 27.6574 19.3462 27.2607 19.0746C26.8639 18.8031 26.5965 18.6681 25.9338 18.3965L23.6783 18.125C22.8819 18.125 22.3515 18.2734 22.0855 18.6666H21.2891C20.8909 18.6666 20.359 18.815 19.9622 18.815C19.1658 18.9633 18.6354 19.3565 18.1049 19.7646C17.9596 19.913 17.4408 20.4427 17.3085 20.9842C17.3085 21.3908 17.4539 21.7974 17.4539 21.9339L17.5992 22.0822C17.8651 21.8107 18.3956 21.6757 19.0583 21.6757C19.9884 21.6757 21.3138 22.0822 21.5798 22.7589C22.2439 23.842 21.978 24.6551 21.978 25.6033C21.5798 28.1776 20.6511 29.3973 18.6601 29.6688C18.2619 29.8172 17.8637 29.8172 17.5992 29.8172C16.1401 29.8172 15.0777 29.4106 14.5473 28.4625V28.191C14.5473 28.191 14.6926 28.191 14.8132 28.0426C15.3437 27.7711 15.7433 27.3645 15.8741 26.8229C16.0195 26.1448 15.8741 25.4682 15.4759 24.9267C14.6795 24.1135 13.6186 23.572 12.424 23.572C11.6276 23.572 11.0972 23.7203 10.5667 23.8435C8.97389 24.25 7.51479 25.6047 6.45388 27.7725C5.65748 29.3988 5.12702 31.295 4.99477 33.4628C4.86253 35.6307 4.84945 37.3919 4.99477 39.0166C5.1401 41.726 5.65893 43.3523 6.32163 45.1001C6.98433 46.848 7.77492 48.4876 8.70503 49.9818C8.97098 50.3883 9.10323 50.7949 9.36919 51.065L9.51452 50.9166C9.65985 50.7682 9.78047 50.645 9.91272 50.375C10.4432 49.9684 11.3718 48.6137 11.6378 48.2087C11.9037 47.8036 12.3019 47.1255 12.5679 46.4474L12.7132 46.1759L12.9792 46.3243C13.2451 46.5958 13.3774 47.0024 13.3774 47.4074C13.3774 47.8125 13.232 48.2205 12.9792 49.0337C12.7132 49.9833 12.1828 51.0664 11.6523 52.1496C11.7976 52.298 11.7976 52.5562 11.6523 52.5562C11.2541 53.2342 11.2541 53.5058 11.2541 53.7758H11.3994C11.5448 53.7758 12.0636 53.6274 12.4603 53.2342C12.8585 52.9627 13.9194 52.0146 15.2463 50.1183C16.3072 48.7636 16.9714 47.2739 17.7678 45.6477L17.9131 45.3761L18.1791 45.5245C18.3244 45.6729 18.445 45.6729 18.5773 45.796C18.7226 46.0676 18.7226 46.4741 18.7226 46.8792C18.5773 47.9624 17.9262 49.4536 17.528 50.5367C16.7316 52.433 15.2725 54.4658 14.2101 55.9555C14.1806 56.0509 14.129 56.1377 14.0597 56.2085C13.9904 56.2792 13.9054 56.3319 13.8119 56.3621C13.9572 56.5104 14.0779 56.6336 14.3424 56.7686L14.7406 57.1752C16.1371 58.367 17.6485 59.4109 19.2516 60.2911C20.5784 61.1042 23.2336 62.4574 25.0895 63.0005C26.9468 62.5939 29.6005 61.1042 30.9273 60.2911C32.5304 59.4109 34.0418 58.367 35.4384 57.1752L35.8366 56.7686C36.1025 56.6202 36.2348 56.3621 36.367 56.3621C36.5123 56.0905 36.5123 55.9555 36.5123 55.8205L36.367 55.6721C35.3061 54.3174 33.8456 52.1496 33.0491 50.2533C32.6509 49.1702 31.9882 47.679 31.8545 46.5958C31.7092 46.1892 31.8545 45.7827 31.9999 45.5126L32.2658 45.2411C32.4111 45.0927 32.664 45.0927 32.664 45.0927L32.8094 45.3643C33.6058 46.9905 34.4022 48.4802 35.3308 49.8349C36.6577 51.7312 37.7186 52.6793 38.1168 52.9508C38.515 53.3574 38.9132 53.4924 39.1777 53.4924H39.323C39.4683 53.344 39.323 53.0859 38.9248 52.4093C38.7795 52.2609 38.7795 52.1377 38.7795 52.0027C38.249 50.9195 37.7186 49.8364 37.4526 48.8868C37.1867 48.0737 37.0544 47.5321 37.0544 47.2605C37.0544 46.854 37.1997 46.4474 37.4526 46.1774L37.7186 46.029L37.8639 46.3005C38.1299 46.9786 38.6603 47.7902 38.9248 48.1968C39.1893 48.6034 40.2517 49.823 40.5176 50.2296C40.7836 50.5011 40.9158 50.6361 40.9158 50.7712L41.0611 50.9195C41.2065 50.7712 41.3271 50.513 41.5916 49.9699L41.7369 49.8215C42.5333 48.4668 43.3297 46.7056 43.9924 44.9444C44.6566 43.3181 45.0533 41.5569 45.3193 38.8608C45.4646 37.2346 45.5853 35.4734 45.3193 33.3071C45.4646 31.2743 44.9211 29.2415 44.2584 27.7533L44.1494 27.7325Z" fill="url(#paint0_radial_223_292)"/>
<defs>
<radialGradient id="paint0_radial_223_292" cx="0" cy="0" r="1" gradientUnits="userSpaceOnUse" gradientTransform="translate(6.07516 25.9363) scale(44.8186 45.7588)">
<stop stop-color="#20C4F4"/>
<stop offset="0.305" stop-color="#09B4F0"/>
<stop offset="0.5" stop-color="#00AEEF"/>
<stop offset="0.8" stop-color="#0092C8"/>
<stop offset="1" stop-color="#006E98"/>
</radialGradient>
</defs>
</svg>
