<svg width="123" height="70" viewBox="0 0 123 70" fill="none" xmlns="http://www.w3.org/2000/svg">
<path d="M116.134 47.5365H110.366L111.317 43.43H99.7604L98.8087 47.5365H93.2241V46.6933C93.3102 46.2295 93.3847 45.7447 93.4943 45.2261C94.5086 40.7992 97.2109 36.4229 101.879 36.4229C103.728 36.4229 105.564 37.1818 105.314 39.9349H112.187C112.457 38.649 112.911 36.4651 111.615 34.454C110.15 32.2701 107.197 31.3931 103.371 31.3931C100.649 31.3931 96.6665 31.8611 93.2241 34.2812V11.9444H116.127V47.5365H116.134ZM102.619 53.5528C101.311 53.8058 100.007 53.9787 98.7696 53.9787C95.4681 53.9787 93.1732 52.326 93.1223 48.4725H103.79L102.619 53.5528ZM89.4213 33.2229L89.4096 38.3244C87.8117 40.698 86.8209 43.2909 86.3588 45.3779C86.1825 46.1072 86.0611 46.8198 85.9946 47.5365H82.6305L85.505 32.8435L75.8239 32.835L67.1571 47.5407H66.5266V11.9444H89.4174V33.2187L89.4213 33.2229ZM76.6346 47.5365H73.1921L78.4048 38.708L76.6346 47.5365ZM62.7356 32.8097H57.006L53.0741 47.5407H46.9999C50.0977 46.3096 51.9814 43.9528 52.561 40.4619C53.0427 37.7468 52.8117 35.9592 51.7856 34.6227C50.2426 32.6327 47.1526 32.8013 44.4033 32.8013C43.9216 32.8013 39.8604 32.8097 39.8604 32.8097V11.9444H62.7356V32.8055V32.8097ZM59.0699 47.5365L61.4824 38.3244L61.5685 47.5365H59.0738H59.0699ZM42.4099 44.0329H42.4021C42.1789 44.0456 41.9557 44.0667 41.7011 44.0667C41.3682 44.0667 41.1058 44.0793 40.8591 44.0793L39.3944 44.0667L40.0719 41.3684L40.393 40.0277L41.1606 36.8909C41.5014 36.8909 41.8342 36.8783 42.1554 36.8783H43.2911C45.2258 36.8783 46.4516 36.9963 46.898 37.6667C47.2388 38.1684 47.1957 39.0411 46.7923 40.3607C46.103 42.6416 45.2258 43.7968 42.4099 44.0287M36.0459 34.1125L35.6856 35.39L32.4116 47.1233L32.2824 47.5365H21.5047L20.6627 45.6266L32.2824 32.8435H24.8179L15.732 43.3794L18.6771 32.8435H13.1708V11.9444H36.0459V34.1125ZM92.3586 11V34.9515C91.5831 35.6134 90.9213 36.3217 90.3064 37.0806V11H65.665V32.8097H63.6246V11H38.9793V32.8435H36.9389V11H12.2896V35.8959L6 58.4688H11.5298L14.3065 48.4725H15.1054L19.6914 58.4688H26.3727L21.9237 48.4725H32.0239L29.2198 58.4688H35.2627L38.0276 48.502H39.3552V48.4725H52.8117L50.1447 58.4393H56.2384L58.8232 48.4725H61.5646L61.639 58.4393H66.7498L72.6165 48.4725H76.4584L74.4767 58.4393H80.4765L82.4229 48.4725H85.8927C85.7557 51.5628 86.488 54.3665 88.3913 56.2596C90.7176 58.5615 94.2854 59 96.9289 59C100.544 59 104.295 58.4435 108.071 57.5244L110.15 48.4725H117V11H92.3586Z" fill="white"/>
</svg>
