<svg width="22" height="22" viewBox="0 0 22 22" fill="none" xmlns="http://www.w3.org/2000/svg">
<path fill-rule="evenodd" clip-rule="evenodd" d="M3.16699 0.348633H6.71597C8.19646 0.348633 9.38296 1.57502 9.38296 3.07974V6.71516C9.38296 8.22948 8.19646 9.4452 6.71597 9.4452H3.16699C1.69699 9.4452 0.5 8.22948 0.5 6.71516V3.07974C0.5 1.57502 1.69699 0.348633 3.16699 0.348633ZM3.16699 12.5802H6.71597C8.19646 12.5802 9.38296 13.7969 9.38296 15.3113V18.9467C9.38296 20.4503 8.19646 21.6767 6.71597 21.6767H3.16699C1.69699 21.6767 0.5 20.4503 0.5 18.9467V15.3113C0.5 13.7969 1.69699 12.5802 3.16699 12.5802ZM18.833 0.348633H15.284C13.8035 0.348633 12.6171 1.57502 12.6171 3.07974V6.71516C12.6171 8.22948 13.8035 9.4452 15.284 9.4452H18.833C20.303 9.4452 21.5 8.22948 21.5 6.71516V3.07974C21.5 1.57502 20.303 0.348633 18.833 0.348633ZM15.284 12.5802H18.833C20.303 12.5802 21.5 13.7969 21.5 15.3113V18.9467C21.5 20.4503 20.303 21.6767 18.833 21.6767H15.284C13.8035 21.6767 12.6171 20.4503 12.6171 18.9467V15.3113C12.6171 13.7969 13.8035 12.5802 15.284 12.5802Z" fill="white"/>
</svg>
