<svg width="22" height="22" viewBox="0 0 22 22" fill="none" xmlns="http://www.w3.org/2000/svg">
<path opacity="1" fill-rule="evenodd" clip-rule="evenodd" d="M21.6643 5.94513V15.7511C21.6643 19.3221 19.6071 21.3381 15.9802 21.3486H6.0198C2.39396 21.3486 0.335754 19.3221 0.335754 15.7511V5.94513C0.335754 2.37408 2.39396 0.348633 6.0198 0.348633H15.9802C19.6071 0.348633 21.6643 2.37408 21.6643 5.94513ZM4.75053 10.9005C4.75053 11.3531 5.09178 11.73 5.55035 11.772H16.4172C16.7478 11.814 17.0795 11.6576 17.2597 11.3741C17.441 11.079 17.441 10.722 17.2597 10.4396C17.0795 10.155 16.7478 9.99856 16.4172 10.029H5.55035C5.09178 10.0826 4.75053 10.4595 4.75053 10.9005ZM4.75176 15.731C4.75176 16.172 5.09302 16.549 5.55158 16.6026H9.04946C9.39178 16.633 9.71064 16.4765 9.89193 16.192C10.0732 15.9095 10.0732 15.5526 9.89193 15.2585C9.71064 14.974 9.39178 14.8175 9.04946 14.8595H5.55158C5.09302 14.9016 4.75176 15.2785 4.75176 15.731ZM5.55029 6.87906C5.09173 6.83706 4.75047 6.46011 4.75047 6.00756C4.75047 5.55606 5.09173 5.17806 5.55029 5.13711H12.9193C13.2509 5.10561 13.5805 5.26206 13.7618 5.54661C13.9431 5.82906 13.9431 6.18711 13.7618 6.47061C13.5805 6.75306 13.2509 6.91161 12.9193 6.87906H5.55029Z" fill="#F5F6FA"/>
</svg>
